<svg width="211" height="29" viewBox="0 0 211 29" fill="none" xmlns="http://www.w3.org/2000/svg">
<path d="M15 21V12H21V13.6867H17.141V15.8321H20.4714V17.5457H17.141V21H15Z" fill="white"/>
<path d="M9.05808 18.045V21H7V12H10.8113C11.8022 12 12.5814 12.2384 13.1488 12.7151C13.7163 13.1919 14 13.9295 14 14.928C14 15.9265 13.7163 16.6957 13.1488 17.2354C12.5814 17.7751 11.8022 18.045 10.8113 18.045H9.05808ZM9.05808 16.3583H10.5572C10.7774 16.3583 10.9637 16.3268 11.1162 16.2639C11.2771 16.2009 11.4041 16.1109 11.4973 15.994C11.5904 15.8771 11.6582 15.7421 11.7005 15.5892C11.7514 15.4273 11.7768 15.2564 11.7768 15.0765C11.7768 14.8606 11.7514 14.6717 11.7005 14.5097C11.6582 14.3478 11.5904 14.2039 11.4973 14.078C11.4041 13.952 11.2771 13.8576 11.1162 13.7946C10.9637 13.7316 10.7774 13.7002 10.5572 13.7002H9.05808V16.3583Z" fill="white"/>
<path fill-rule="evenodd" clip-rule="evenodd" d="M14 0C13.078 0 12.2406 0.273814 11.3302 0.73107C10.4525 1.17349 9.43665 1.82633 8.16949 2.64102L5.47758 4.37158C4.27944 5.14312 3.31702 5.76088 2.5773 6.34763C1.81023 6.9546 1.22158 7.57507 0.795721 8.38033C0.371163 9.18288 0.181023 10.038 0.0885581 11.0483C-6.14567e-08 12.0262 0 13.224 0 14.7253V16.9009C0 19.4691 0 21.4964 0.199256 23.0813C0.402419 24.7067 0.832186 26.0191 1.80112 27.0563C2.77395 28.099 4.01116 28.5657 5.5453 28.7855C7.02995 29 8.92875 29 11.3198 29H16.6802C19.0713 29 20.9701 29 22.4547 28.7855C23.9875 28.5657 25.226 28.099 26.2002 27.0563C27.1678 26.0191 27.5976 24.7067 27.802 23.0813C28 21.4964 28 19.4691 28 16.9009V14.7253C28 13.224 28 12.0276 27.9114 11.0483C27.8203 10.0367 27.6288 9.18288 27.2043 8.38033C26.7784 7.57507 26.1885 6.95595 25.4227 6.34763C24.683 5.75954 23.7219 5.14312 22.5224 4.37158L19.8305 2.64102C18.5634 1.82633 17.5475 1.17349 16.6685 0.73107C15.7607 0.272465 14.9233 0 14 0ZM9.15535 4.38912C10.4772 3.53935 11.4084 2.94316 12.1859 2.55065C12.9425 2.16893 13.4791 2.02326 14 2.02326C14.5209 2.02326 15.0575 2.16893 15.8141 2.55065C16.5929 2.94181 17.5228 3.53935 18.8447 4.38912L21.4493 6.06302C22.7008 6.86828 23.5799 7.43344 24.2363 7.95409C24.8731 8.45991 25.2391 8.8767 25.4904 9.35149C25.7418 9.82763 25.8889 10.3847 25.9658 11.2372C26.0452 12.1112 26.0465 13.2132 26.0465 14.7752V16.8267C26.0465 19.484 26.0439 21.3804 25.8642 22.8196C25.6871 24.2332 25.3524 25.0533 24.7963 25.6508C24.2428 26.243 23.49 26.595 22.1864 26.7825C20.8502 26.974 19.0882 26.9767 16.6047 26.9767H11.3953C8.91051 26.9767 7.14977 26.974 5.81358 26.7825C4.50995 26.5937 3.75721 26.243 3.20502 25.6495C2.64763 25.0533 2.31293 24.2332 2.13712 22.8196C1.95479 21.3804 1.95349 19.4853 1.95349 16.8267V14.7752C1.95349 13.2132 1.95349 12.1112 2.03423 11.2372C2.11107 10.3847 2.25823 9.82763 2.50958 9.35149C2.76093 8.8767 3.12688 8.45991 3.76502 7.95409C4.42009 7.43344 5.29916 6.86828 6.5507 6.06302L9.15535 4.38912Z" fill="white"/>
<path d="M41.5064 10.31C42.669 10.31 43.6474 10.6797 44.4416 11.4193C45.2358 12.1589 45.633 13.067 45.633 14.1437C45.633 15.2204 45.2358 16.1286 44.4416 16.8681C43.6474 17.6077 42.669 17.9775 41.5064 17.9775H39.3827V21.7297H37V10.31H41.5064ZM41.5064 15.873C42.0129 15.873 42.433 15.7099 42.7668 15.3836C43.1006 15.0464 43.2675 14.6331 43.2675 14.1437C43.2675 13.6434 43.1006 13.2301 42.7668 12.9039C42.433 12.5776 42.0129 12.4145 41.5064 12.4145H39.3827V15.873H41.5064Z" fill="white"/>
<path d="M49.1224 14.9757C49.3296 14.4537 49.6692 14.0622 50.1411 13.8011C50.6246 13.5401 51.1598 13.4096 51.7468 13.4096V15.7588C51.0677 15.6827 50.4577 15.8132 49.9167 16.1503C49.3872 16.4875 49.1224 17.0476 49.1224 17.8307V21.7297H46.8951V13.5727H49.1224V14.9757Z" fill="white"/>
<path d="M60.0844 20.7182C59.1981 21.5448 58.1161 21.9581 56.8384 21.9581C55.5607 21.9581 54.4787 21.5448 53.5924 20.7182C52.7176 19.8808 52.2802 18.8584 52.2802 17.6512C52.2802 16.444 52.7176 15.4271 53.5924 14.6005C54.4787 13.7631 55.5607 13.3443 56.8384 13.3443C58.1161 13.3443 59.1981 13.7631 60.0844 14.6005C60.9707 15.4271 61.4139 16.444 61.4139 17.6512C61.4139 18.8584 60.9707 19.8808 60.0844 20.7182ZM55.1636 19.2663C55.6125 19.6904 56.1708 19.9025 56.8384 19.9025C57.506 19.9025 58.0643 19.6904 58.5132 19.2663C58.9621 18.8421 59.1866 18.3038 59.1866 17.6512C59.1866 16.9987 58.9621 16.4603 58.5132 16.0361C58.0643 15.612 57.506 15.3999 56.8384 15.3999C56.1708 15.3999 55.6125 15.612 55.1636 16.0361C54.7262 16.4603 54.5075 16.9987 54.5075 17.6512C54.5075 18.3038 54.7262 18.8421 55.1636 19.2663Z" fill="white"/>
<path d="M68.0051 13.3443C69.1677 13.3443 70.1576 13.7631 70.9749 14.6005C71.8036 15.4271 72.218 16.444 72.218 17.6512C72.218 18.8584 71.8036 19.8808 70.9749 20.7182C70.1576 21.5448 69.1677 21.9581 68.0051 21.9581C66.7965 21.9581 65.8642 21.5611 65.2081 20.7672V24.9924H62.9808V13.5727H65.2081V14.5353C65.8642 13.7413 66.7965 13.3443 68.0051 13.3443ZM65.8814 19.3152C66.3303 19.7394 66.9001 19.9515 67.5908 19.9515C68.2814 19.9515 68.8512 19.7394 69.3001 19.3152C69.7605 18.8802 69.9907 18.3255 69.9907 17.6512C69.9907 16.9769 69.7605 16.4277 69.3001 16.0035C68.8512 15.5685 68.2814 15.3509 67.5908 15.3509C66.9001 15.3509 66.3303 15.5685 65.8814 16.0035C65.4325 16.4277 65.2081 16.9769 65.2081 17.6512C65.2081 18.3255 65.4325 18.8802 65.8814 19.3152Z" fill="white"/>
<path d="M75.6708 18.5158C75.9701 19.5382 76.7816 20.0493 78.1053 20.0493C78.9571 20.0493 79.6017 19.7774 80.0391 19.2337L81.8347 20.2125C80.9829 21.3762 79.7283 21.9581 78.0708 21.9581C76.6434 21.9581 75.4981 21.5502 74.6348 20.7345C73.7715 19.9188 73.3399 18.8911 73.3399 17.6512C73.3399 16.4222 73.7658 15.3999 74.6176 14.5842C75.4694 13.7576 76.5629 13.3443 77.8981 13.3443C79.1643 13.3443 80.206 13.7576 81.0232 14.5842C81.852 15.4108 82.2664 16.4331 82.2664 17.6512C82.2664 17.9231 82.2376 18.2113 82.1801 18.5158H75.6708ZM75.6363 16.8845H80.0391C79.9125 16.3298 79.6477 15.9165 79.2448 15.6446C78.8535 15.3727 78.4046 15.2368 77.8981 15.2368C77.2996 15.2368 76.8046 15.3836 76.4132 15.6772C76.0219 15.96 75.7629 16.3624 75.6363 16.8845Z" fill="white"/>
<path d="M86.0486 14.9757C86.2558 14.4537 86.5953 14.0622 87.0672 13.8011C87.5507 13.5401 88.0859 13.4096 88.673 13.4096V15.7588C87.9939 15.6827 87.3838 15.8132 86.8428 16.1503C86.3133 16.4875 86.0486 17.0476 86.0486 17.8307V21.7297H83.8213V13.5727H86.0486V14.9757Z" fill="white"/>
<path d="M95.1497 15.5957H93.1987V18.9889C93.1987 19.2717 93.2735 19.4784 93.4231 19.6089C93.5728 19.7394 93.7915 19.8155 94.0792 19.8373C94.367 19.8481 94.7238 19.8427 95.1497 19.8209V21.7297C93.6188 21.8928 92.5368 21.7569 91.9037 21.3218C91.2822 20.8868 90.9714 20.1092 90.9714 18.9889V15.5957H89.4692V13.5727H90.9714V11.925L93.1987 11.2888V13.5727H95.1497V15.5957Z" fill="white"/>
<path d="M97.8251 12.5939C97.4568 12.5939 97.1345 12.4688 96.8582 12.2187C96.5935 11.9577 96.4611 11.6531 96.4611 11.3051C96.4611 10.9571 96.5935 10.6526 96.8582 10.3915C97.1345 10.1305 97.4568 10 97.8251 10C98.205 10 98.5273 10.1305 98.792 10.3915C99.0683 10.6526 99.2064 10.9571 99.2064 11.3051C99.2064 11.6531 99.0683 11.9577 98.792 12.2187C98.5273 12.4688 98.205 12.5939 97.8251 12.5939ZM96.7201 21.7297V13.5727H98.9474V21.7297H96.7201Z" fill="white"/>
<path d="M105.631 12.1045C104.41 12.0175 103.8 12.4797 103.8 13.4912V13.5727H105.631V15.5957H103.8V21.7297H101.573V15.5957H100.33V13.5727H101.573V13.4912C101.573 12.3383 101.913 11.4628 102.592 10.8646C103.271 10.2665 104.284 10.0054 105.631 10.0816V12.1045Z" fill="white"/>
<path d="M112.617 13.5727H115L111.858 21.7297C111.409 22.9043 110.81 23.7526 110.062 24.2746C109.325 24.8076 108.404 25.0468 107.299 24.9924V23.0348C107.898 23.0457 108.37 22.926 108.715 22.6759C109.072 22.4257 109.354 22.0233 109.561 21.4687L106.022 13.5727H108.456L110.701 19.0542L112.617 13.5727Z" fill="white"/>
<path d="M207.758 14.1185C208.726 14.1185 209.506 14.4627 210.098 15.1511C210.699 15.8308 211 16.6368 211 17.5693C211 17.6651 210.991 17.8002 210.974 17.9745H205.236C205.323 18.6367 205.602 19.1639 206.072 19.5561C206.551 19.9395 207.14 20.1312 207.837 20.1312C208.333 20.1312 208.76 20.031 209.118 19.8306C209.484 19.6214 209.758 19.3513 209.941 19.0202L210.699 19.4646C210.412 19.9264 210.02 20.2924 209.523 20.5626C209.026 20.8327 208.46 20.9678 207.824 20.9678C206.795 20.9678 205.959 20.6453 205.314 20.0005C204.669 19.3556 204.347 18.5365 204.347 17.5431C204.347 16.5671 204.665 15.7524 205.301 15.0988C205.937 14.4452 206.756 14.1185 207.758 14.1185ZM207.758 14.955C207.079 14.955 206.508 15.1598 206.046 15.5694C205.593 15.9702 205.323 16.4931 205.236 17.1379H210.111C210.024 16.4495 209.758 15.9136 209.314 15.5302C208.869 15.1467 208.351 14.955 207.758 14.955Z" fill="white"/>
<path d="M202.046 20.8109V11.269H202.908V20.8109H202.046Z" fill="white"/>
<path d="M199.595 19.9874C198.933 20.641 198.123 20.9678 197.164 20.9678C196.206 20.9678 195.391 20.641 194.72 19.9874C194.058 19.3251 193.726 18.5104 193.726 17.5431C193.726 16.5758 194.058 15.7654 194.72 15.1119C195.391 14.4496 196.206 14.1185 197.164 14.1185C198.123 14.1185 198.933 14.4496 199.595 15.1119C200.266 15.7654 200.602 16.5758 200.602 17.5431C200.602 18.5104 200.266 19.3251 199.595 19.9874ZM195.334 19.3861C195.831 19.8829 196.441 20.1312 197.164 20.1312C197.887 20.1312 198.497 19.8829 198.994 19.3861C199.491 18.8807 199.739 18.2664 199.739 17.5431C199.739 16.8198 199.491 16.2099 198.994 15.7132C198.497 15.2077 197.887 14.955 197.164 14.955C196.441 14.955 195.831 15.2077 195.334 15.7132C194.837 16.2099 194.589 16.8198 194.589 17.5431C194.589 18.2664 194.837 18.8807 195.334 19.3861Z" fill="white"/>
<path d="M189.054 15.9876C189.054 16.2839 189.185 16.5192 189.446 16.6935C189.708 16.8678 190.026 17.0028 190.4 17.0987C190.775 17.1945 191.15 17.3035 191.525 17.4255C191.899 17.5388 192.217 17.7348 192.479 18.0137C192.74 18.2838 192.871 18.6411 192.871 19.0855C192.871 19.6432 192.649 20.0963 192.204 20.4449C191.769 20.7935 191.202 20.9678 190.505 20.9678C189.878 20.9678 189.342 20.8283 188.897 20.5495C188.462 20.2706 188.157 19.909 187.982 19.4646L188.714 19.0332C188.836 19.3731 189.054 19.6432 189.368 19.8436C189.69 20.0353 190.069 20.1312 190.505 20.1312C190.932 20.1312 191.289 20.0484 191.577 19.8829C191.864 19.7086 192.008 19.4428 192.008 19.0855C192.008 18.7892 191.878 18.5539 191.616 18.3797C191.355 18.2054 191.037 18.0703 190.662 17.9745C190.287 17.8786 189.912 17.774 189.538 17.6608C189.163 17.5388 188.845 17.3427 188.584 17.0726C188.322 16.7937 188.191 16.4321 188.191 15.9876C188.191 15.4561 188.401 15.0117 188.819 14.6544C189.246 14.2971 189.782 14.1185 190.427 14.1185C190.958 14.1185 191.424 14.2405 191.825 14.4845C192.226 14.7197 192.522 15.0422 192.714 15.4517L191.995 15.87C191.742 15.26 191.22 14.955 190.427 14.955C190.052 14.955 189.729 15.0465 189.459 15.2295C189.189 15.4038 189.054 15.6565 189.054 15.9876Z" fill="white"/>
<path d="M184.144 14.1185C184.937 14.1185 185.56 14.3625 186.014 14.8505C186.475 15.3297 186.706 15.9789 186.706 16.7981V20.8109H185.844V16.7981C185.844 16.2142 185.687 15.7611 185.373 15.4387C185.068 15.1162 184.632 14.955 184.066 14.955C183.439 14.955 182.929 15.1554 182.537 15.5563C182.145 15.9484 181.948 16.5584 181.948 17.3863V20.8109H181.086V14.2753H181.948V15.2949C182.436 14.5106 183.168 14.1185 184.144 14.1185Z" fill="white"/>
<path d="M178.636 19.9874C177.973 20.641 177.163 20.9678 176.204 20.9678C175.246 20.9678 174.431 20.641 173.76 19.9874C173.098 19.3251 172.767 18.5104 172.767 17.5431C172.767 16.5758 173.098 15.7654 173.76 15.1119C174.431 14.4496 175.246 14.1185 176.204 14.1185C177.163 14.1185 177.973 14.4496 178.636 15.1119C179.307 15.7654 179.642 16.5758 179.642 17.5431C179.642 18.5104 179.307 19.3251 178.636 19.9874ZM174.374 19.3861C174.871 19.8829 175.481 20.1312 176.204 20.1312C176.928 20.1312 177.538 19.8829 178.034 19.3861C178.531 18.8807 178.779 18.2664 178.779 17.5431C178.779 16.8198 178.531 16.2099 178.034 15.7132C177.538 15.2077 176.928 14.955 176.204 14.955C175.481 14.955 174.871 15.2077 174.374 15.7132C173.878 16.2099 173.629 16.8198 173.629 17.5431C173.629 18.2664 173.878 18.8807 174.374 19.3861Z" fill="white"/>
<path d="M167.888 20.9678C166.503 20.9678 165.357 20.5103 164.45 19.5953C163.544 18.6803 163.091 17.5606 163.091 16.236C163.091 14.9115 163.544 13.7917 164.45 12.8767C165.357 11.9618 166.503 11.5043 167.888 11.5043C168.733 11.5043 169.509 11.7091 170.215 12.1186C170.921 12.5195 171.465 13.0641 171.849 13.7525L171.038 14.2231C170.751 13.6654 170.324 13.221 169.757 12.8898C169.191 12.5587 168.568 12.3931 167.888 12.3931C166.747 12.3931 165.814 12.7635 165.091 13.5042C164.368 14.2449 164.006 15.1555 164.006 16.236C164.006 17.3166 164.368 18.2272 165.091 18.9679C165.814 19.7086 166.747 20.079 167.888 20.079C168.568 20.079 169.191 19.9134 169.757 19.5822C170.324 19.2511 170.751 18.8067 171.038 18.249L171.849 18.7065C171.474 19.3949 170.929 19.9439 170.215 20.3534C169.509 20.763 168.733 20.9678 167.888 20.9678Z" fill="white"/>
<path d="M155.985 14.1185C156.778 14.1185 157.401 14.3625 157.854 14.8505C158.316 15.3297 158.547 15.9789 158.547 16.7981V20.8109H157.684V16.7981C157.684 16.2142 157.528 15.7611 157.214 15.4387C156.909 15.1162 156.473 14.955 155.907 14.955C155.279 14.955 154.77 15.1554 154.377 15.5563C153.985 15.9484 153.789 16.5584 153.789 17.3863V20.8109H152.927V14.2753H153.789V15.2949C154.277 14.5106 155.009 14.1185 155.985 14.1185Z" fill="white"/>
<path d="M151.109 12.7068C150.987 12.8288 150.839 12.8898 150.665 12.8898C150.49 12.8898 150.342 12.8288 150.22 12.7068C150.098 12.5848 150.037 12.4366 150.037 12.2624C150.037 12.0881 150.098 11.9399 150.22 11.8179C150.342 11.6959 150.49 11.6349 150.665 11.6349C150.839 11.6349 150.987 11.6959 151.109 11.8179C151.231 11.9399 151.292 12.0881 151.292 12.2624C151.292 12.4366 151.231 12.5848 151.109 12.7068ZM150.233 20.8109V14.2753H151.096V20.8109H150.233Z" fill="white"/>
<path d="M146.12 14.1185C146.852 14.1185 147.44 14.3537 147.885 14.8243C148.338 15.2949 148.565 15.931 148.565 16.7327V20.8109H147.702V16.7327C147.702 16.1663 147.554 15.7306 147.257 15.4256C146.97 15.1119 146.586 14.955 146.107 14.955C145.567 14.955 145.127 15.138 144.787 15.504C144.456 15.8613 144.29 16.4234 144.29 17.1902V20.8109H143.428V16.7327C143.428 16.1576 143.288 15.7175 143.009 15.4125C142.739 15.1075 142.369 14.955 141.898 14.955C141.375 14.955 140.931 15.138 140.565 15.504C140.199 15.87 140.016 16.4321 140.016 17.1902V20.8109H139.153V14.2753H140.016V15.2295C140.487 14.4888 141.153 14.1185 142.016 14.1185C142.957 14.1185 143.619 14.515 144.003 15.3079C144.473 14.515 145.179 14.1185 146.12 14.1185Z" fill="white"/>
<path d="M136.464 11.6611H137.327V20.8109H136.464V19.53C135.863 20.4885 134.983 20.9678 133.824 20.9678C132.891 20.9678 132.094 20.6367 131.432 19.9744C130.778 19.3121 130.451 18.5017 130.451 17.5432C130.451 16.5846 130.778 15.7742 131.432 15.1119C132.094 14.4496 132.891 14.1185 133.824 14.1185C134.983 14.1185 135.863 14.5978 136.464 15.5563V11.6611ZM132.059 19.3862C132.556 19.8829 133.166 20.1312 133.889 20.1312C134.612 20.1312 135.222 19.8829 135.719 19.3862C136.216 18.8808 136.464 18.2664 136.464 17.5432C136.464 16.8199 136.216 16.2099 135.719 15.7132C135.222 15.2078 134.612 14.9551 133.889 14.9551C133.166 14.9551 132.556 15.2078 132.059 15.7132C131.562 16.2099 131.314 16.8199 131.314 17.5432C131.314 18.2664 131.562 18.8808 132.059 19.3862Z" fill="white"/>
<path d="M128.96 20.8109L128.11 18.5627H123.77L122.921 20.8109H121.954L125.47 11.6611H126.411L129.927 20.8109H128.96ZM124.097 17.7H127.783L125.94 12.7983L124.097 17.7Z" fill="white"/>
</svg>
